<svg xmlns="http://www.w3.org/2000/svg" xmlns:xlink="http://www.w3.org/1999/xlink" width="1366" zoomAndPan="magnify" viewBox="0 0 1024.5 576" height="768" preserveAspectRatio="xMidYMid meet" version="1.0"><defs><clipPath id="2bbe804ae7"><path d="M 311 370.636719 L 714 370.636719 L 714 397.636719 L 311 397.636719 Z M 311 370.636719 " clip-rule="nonzero"/></clipPath><clipPath id="e65ecc7873"><path d="M 311 274.730469 L 714 274.730469 L 714 301.730469 L 311 301.730469 Z M 311 274.730469 " clip-rule="nonzero"/></clipPath><clipPath id="8c57831d5a"><path d="M 311 178.820312 L 714 178.820312 L 714 205.820312 L 311 205.820312 Z M 311 178.820312 " clip-rule="nonzero"/></clipPath></defs><g clip-path="url(#2bbe804ae7)"><path fill="#000000" d="M 699.652344 370.636719 L 324.546875 370.636719 C 317.148438 370.636719 311.148438 376.683594 311.148438 384.136719 C 311.148438 391.59375 317.148438 397.636719 324.546875 397.636719 L 699.652344 397.636719 C 707.050781 397.636719 713.050781 391.59375 713.050781 384.136719 C 713.050781 376.683594 707.050781 370.636719 699.652344 370.636719 Z M 699.652344 370.636719 " fill-opacity="1" fill-rule="nonzero"/></g><g clip-path="url(#e65ecc7873)"><path fill="#000000" d="M 699.652344 274.730469 L 324.546875 274.730469 C 317.148438 274.730469 311.148438 280.773438 311.148438 288.230469 C 311.148438 295.683594 317.148438 301.730469 324.546875 301.730469 L 699.652344 301.730469 C 707.050781 301.730469 713.050781 295.683594 713.050781 288.230469 C 713.050781 280.773438 707.050781 274.730469 699.652344 274.730469 Z M 699.652344 274.730469 " fill-opacity="1" fill-rule="nonzero"/></g><g clip-path="url(#8c57831d5a)"><path fill="#000000" d="M 699.652344 178.820312 L 324.546875 178.820312 C 317.148438 178.820312 311.148438 184.863281 311.148438 192.320312 C 311.148438 199.773438 317.148438 205.820312 324.546875 205.820312 L 699.652344 205.820312 C 707.050781 205.820312 713.050781 199.773438 713.050781 192.320312 C 713.050781 184.863281 707.050781 178.820312 699.652344 178.820312 Z M 699.652344 178.820312 " fill-opacity="1" fill-rule="nonzero"/></g></svg>